<svg xmlns="http://www.w3.org/2000/svg"  viewBox="0 0 48 48" width="96px" height="96px"><path d="M 13.5 6 C 9.3754991 6 6 9.3754991 6 13.5 L 6 34.5 C 6 38.624501 9.3754991 42 13.5 42 L 34.5 42 C 38.624501 42 42 38.624501 42 34.5 L 42 13.5 C 42 9.3754991 38.624501 6 34.5 6 L 13.5 6 z M 16.5 15 C 17.329 15 18 15.672 18 16.5 L 18 30 L 23.5 30 C 24.329 30 25 30.672 25 31.5 C 25 32.328 24.329 33 23.5 33 L 16.5 33 C 15.671 33 15 32.328 15 31.5 L 15 16.5 C 15 15.672 15.671 15 16.5 15 z M 28.5 21 C 29.044 21 29.516297 21.292562 29.779297 21.726562 C 30.583297 21.266563 31.51 21 32.5 21 L 33.5 21 C 34.329 21 35 21.672 35 22.5 C 35 23.328 34.329 24 33.5 24 L 32.5 24 C 31.122 24 30 25.121 30 26.5 L 30 31.5 C 30 32.328 29.329 33 28.5 33 C 27.671 33 27 32.328 27 31.5 L 27 22.5 C 27 21.672 27.671 21 28.5 21 z"/></svg>