<svg xmlns="http://www.w3.org/2000/svg"  viewBox="0 0 48 48" width="96px" height="96px"><path d="M 13.5 6 C 9.3754991 6 6 9.3754991 6 13.5 L 6 34.5 C 6 38.624501 9.3754991 42 13.5 42 L 34.5 42 C 38.624501 42 42 38.624501 42 34.5 L 42 13.5 C 42 9.3754991 38.624501 6 34.5 6 L 13.5 6 z M 16.5 15 L 19 15 C 22.03 15 24.5 17.47 24.5 20.5 C 24.5 23.53 22.03 26 19 26 L 18 26 L 18 31.5 C 18 32.33 17.33 33 16.5 33 C 15.67 33 15 32.33 15 31.5 L 15 16.5 C 15 15.67 15.67 15 16.5 15 z M 18 18 L 18 23 L 19 23 C 20.38 23 21.5 21.88 21.5 20.5 C 21.5 19.12 20.38 18 19 18 L 18 18 z M 29.050781 21 L 30.400391 21 C 31.840391 21 33.159922 21.91 33.669922 23.25 C 33.969922 24.03 33.580781 24.889453 32.800781 25.189453 C 32.030781 25.489453 31.159141 25.090313 30.869141 24.320312 C 30.809141 24.160312 30.640391 24 30.400391 24 L 29.050781 24 C 28.640781 24 28.300781 24.34 28.300781 24.75 C 28.300781 25.16 28.640781 25.5 29.050781 25.5 L 30.25 25.5 C 32.32 25.5 34 27.18 34 29.25 C 34 31.32 32.32 33 30.25 33 L 28.099609 33 C 27.249609 33 26.429063 32.690859 25.789062 32.130859 C 25.659063 32.010859 25.539687 31.889766 25.429688 31.759766 C 24.889688 31.119766 24.979375 30.180625 25.609375 29.640625 C 26.249375 29.110625 27.190469 29.200078 27.730469 29.830078 C 27.830469 29.930078 27.939609 30 28.099609 30 L 30.25 30 C 30.66 30 31 29.66 31 29.25 C 31 28.84 30.66 28.5 30.25 28.5 L 29.050781 28.5 C 26.980781 28.5 25.300781 26.82 25.300781 24.75 C 25.300781 22.68 26.980781 21 29.050781 21 z"/></svg>